<svg width="24" height="24" viewBox="0 0 24 24" fill="none" xmlns="http://www.w3.org/2000/svg">
<path d="M2 7H0V5H2C5.49 5 7.48 6.221 8.822 7.854C8.412 8.508 8.068 9.166 7.767 9.793C6.68 8.15 5.134 7 2 7ZM18 17C14.916 17 13.396 15.853 12.321 14.214C12.019 14.841 11.674 15.498 11.261 16.151C12.588 17.78 14.552 19 18 19V22L24 18L18 14V17ZM18 7V10L24 6L18 2V5C12.166 5 10.564 8.482 9.15 11.556C7.807 14.477 6.646 17 2 17H0V19H2C7.928 19 9.543 15.489 10.968 12.391C12.299 9.498 13.447 7 18 7Z" fill="#76ABAE"/>
</svg>
