<svg width="44" height="44" viewBox="0 0 44 44" fill="none" xmlns="http://www.w3.org/2000/svg">
    <path d="M35.75 22C31.1978 22 27.5 25.6942 27.5 30.25C27.5 34.8058 31.1978 38.5 35.75 38.5C40.3022 38.5 44 34.8058 44 30.25C44 25.6942 40.3022 22 35.75 22ZM40.3333 31.1667H36.6667V34.8333H34.8333V31.1667H31.1667V29.3333H34.8333V25.6667H36.6667V29.3333H40.3333V31.1667ZM7.33333 31.1667L14.6667 20.24L19.2133 23.8333L23.8333 16.5L27.2305 21.934C24.9003 24.3228 23.606 27.5972 23.881 31.1667H7.33333ZM27.17 38.5H0V5.5H40.3333V19.2518C39.1912 18.7733 37.9555 18.4782 36.6667 18.3792V9.16667H3.66667V34.8333H24.7537C25.3257 36.2065 26.1562 37.444 27.17 38.5ZM10.0833 18.3333C8.56533 18.3333 7.33333 17.1032 7.33333 15.5833C7.33333 14.0653 8.56533 12.8333 10.0833 12.8333C11.6013 12.8333 12.8333 14.0653 12.8333 15.5833C12.8333 17.1032 11.6013 18.3333 10.0833 18.3333Z" fill="#EEEEEE"/>
</svg>
